HIERARCHY
ROOT Hips
{
	OFFSET -0.001795 -0.223333 0.028219
	CHANNELS 6 Xposition Yposition Zposition Zrotation Yrotation Xrotation 
	JOINT LeftUpLeg
	{
		OFFSET 0.069520 -0.091406 -0.006815
		CHANNELS 3 Zrotation Yrotation Xrotation
		JOINT LeftLeg
		{
			OFFSET 0.034277 -0.375199 -0.004496
			CHANNELS 3 Zrotation Yrotation Xrotation
			JOINT LeftFoot
			{
				OFFSET -0.013596 -0.397961 -0.043693
				CHANNELS 3 Zrotation Yrotation Xrotation
				JOINT LeftToe
				{
					OFFSET 0.026358 -0.055791 0.119288
					CHANNELS 3 Zrotation Yrotation Xrotation
					End Site
					{
						OFFSET 0.000000 0.000000 0.000000
					}
				}
			}
		}
	}
	JOINT RightUpLeg
	{
		OFFSET -0.067670 -0.090522 -0.004320
		CHANNELS 3 Zrotation Yrotation Xrotation
		JOINT RightLeg
		{
			OFFSET -0.038290 -0.382569 -0.008850
			CHANNELS 3 Zrotation Yrotation Xrotation
			JOINT RightFoot
			{
				OFFSET 0.015774 -0.398415 -0.042312
				CHANNELS 3 Zrotation Yrotation Xrotation
				JOINT RightToe
				{
					OFFSET -0.025372 -0.048144 0.123348
					CHANNELS 3 Zrotation Yrotation Xrotation
					End Site
					{
						OFFSET 0.000000 0.000000 0.000000
					}
				}
			}
		}
	}
	JOINT Spine
	{
		OFFSET -0.002533 0.108963 -0.026696
		CHANNELS 3 Zrotation Yrotation Xrotation
		JOINT Spine1
		{
			OFFSET 0.005487 0.135180 0.001092
			CHANNELS 3 Zrotation Yrotation Xrotation
			JOINT Spine2
			{
				OFFSET 0.001457 0.052922 0.025425
				CHANNELS 3 Zrotation Yrotation Xrotation
				JOINT Neck
				{
					OFFSET -0.002778 0.213870 -0.042857
					CHANNELS 3 Zrotation Yrotation Xrotation
					JOINT Head
					{
						OFFSET 0.005152 0.064970 0.051349
						CHANNELS 3 Zrotation Yrotation Xrotation
						End Site
						{
							OFFSET 0.000000 0.000000 0.000000
						}
					}
				}
				JOINT LeftShoulder
				{
					OFFSET 0.078845 0.121749 -0.034090
					CHANNELS 3 Zrotation Yrotation Xrotation
					JOINT LeftArm
					{
						OFFSET 0.090977 0.030469 -0.008868
						CHANNELS 3 Zrotation Yrotation Xrotation
						JOINT LeftForeArm
						{
							OFFSET 0.259612 -0.012772 -0.027456
							CHANNELS 3 Zrotation Yrotation Xrotation
							JOINT LeftHand
							{
								OFFSET 0.249234 0.008986 -0.001171
								CHANNELS 3 Zrotation Yrotation Xrotation
								End Site
								{
									OFFSET 0.000000 0.000000 0.000000
								}
							}
						}
					}
				}
				JOINT RightShoulder
				{
					OFFSET -0.081759 0.118833 -0.038615
					CHANNELS 3 Zrotation Yrotation Xrotation
					JOINT RightArm
					{
						OFFSET -0.096012 0.032551 -0.009143
						CHANNELS 3 Zrotation Yrotation Xrotation
						JOINT RightForeArm
						{
							OFFSET -0.253742 -0.013329 -0.021401
							CHANNELS 3 Zrotation Yrotation Xrotation
							JOINT RightHand
							{
								OFFSET -0.255298 0.007772 -0.005559
								CHANNELS 3 Zrotation Yrotation Xrotation
								End Site
								{
									OFFSET 0.000000 0.000000 0.000000
								}
							}
						}
					}
				}
			}
		}
	}
}
MOTION
Frames: 12
Frame Time: 0.050000
-0.626496 0.888585 1.704881 -3.068003 -33.265837 -2.363999 4.483194 2.128942 14.718649 10.869848 -2.269609 18.646951 -5.086053 -11.400620 -1.079036 0.000000 0.000000 0.000000 -4.357000 3.534743 -26.252249 -5.054645 4.417711 23.909775 9.799227 12.004530 11.171306 0.000000 0.000000 0.000000 4.363271 -0.458791 15.315026 -1.653609 1.182398 3.143494 0.741039 -11.114921 -2.702012 -3.384004 1.874486 -7.488989 0.000000 0.000000 0.000000 -28.036146 3.252097 3.849834 -39.711852 -26.322547 1.535018 5.014260 -44.086462 2.542755 0.000000 0.000000 0.000000 24.371833 -7.816529 -14.316180 39.839857 -18.215975 -7.903728 11.778338 26.122045 1.924926 0.000000 0.000000 0.000000 
-0.671172 0.893842 1.727735 -4.742571 -32.961813 -0.092221 5.936541 1.632634 12.056228 11.648025 -2.298960 24.524886 -4.588907 -8.023872 6.436640 0.000000 0.000000 0.000000 -1.768416 3.932319 -26.300009 -3.434086 4.605934 26.796549 7.783448 8.773192 9.950807 0.000000 0.000000 0.000000 6.484308 -0.714540 14.119797 -2.170905 1.476484 3.222230 1.003158 -9.892305 -2.827255 -3.270149 1.920358 -6.917230 0.000000 0.000000 0.000000 -29.176878 3.225035 3.657434 -40.905811 -23.830810 0.824377 4.130042 -45.523331 2.927603 0.000000 0.000000 0.000000 23.833142 -8.202556 -13.871008 40.725253 -16.287670 -7.580941 12.755706 24.413424 2.036970 0.000000 0.000000 0.000000 
-0.709409 0.903021 1.748904 -5.834825 -31.098866 0.278578 6.944317 0.920659 5.965931 13.044373 -2.184660 37.179337 -4.478341 -5.159860 13.928643 0.000000 0.000000 0.000000 0.167482 3.412535 -23.091313 -2.353583 4.120216 26.678710 6.456389 7.857221 7.938397 0.000000 0.000000 0.000000 8.078384 -0.911087 14.811154 -2.846436 1.731123 2.731971 2.788545 -9.587593 -1.961175 -5.006072 2.615116 -11.012388 0.000000 0.000000 0.000000 -30.973800 4.199083 3.062755 -42.037172 -22.135079 0.115962 3.004225 -45.095427 3.326969 0.000000 0.000000 0.000000 22.232082 -6.404033 -12.090243 42.454920 -12.669754 -6.835886 13.293341 23.914498 2.070894 0.000000 0.000000 0.000000 
-0.740679 0.911577 1.768515 -5.853351 -28.812247 0.525305 7.186758 0.434815 -2.203071 12.500220 -1.141932 50.236979 -3.444896 -2.857575 13.142389 0.000000 0.000000 0.000000 0.502486 2.637622 -19.503672 -1.106445 3.099169 24.299580 5.388790 7.069130 6.295940 0.000000 0.000000 0.000000 8.470646 -1.025271 15.294684 -2.153779 1.169508 1.101845 1.706612 -7.180236 -0.641970 -4.668082 2.439908 -12.086364 0.000000 0.000000 0.000000 -31.853644 3.949834 2.165012 -41.983586 -19.808540 -0.582649 1.186758 -43.257817 3.511711 0.000000 0.000000 0.000000 21.887945 -5.639517 -10.747959 43.332983 -9.174680 -5.919724 13.592596 24.756040 2.337921 0.000000 0.000000 0.000000 
-0.766355 0.920064 1.788876 -5.253324 -26.035557 0.336849 6.424142 0.198459 -10.068204 9.851562 0.296178 57.014709 -0.927143 -0.768337 3.682324 0.000000 0.000000 0.000000 0.236534 1.885733 -15.697415 -0.248507 2.234580 21.501489 4.452930 5.825976 5.374990 0.000000 0.000000 0.000000 7.721030 -1.053935 16.097204 -2.150917 1.122204 0.792098 2.138939 -4.939907 -0.293924 -4.879898 2.706557 -13.135345 0.000000 0.000000 0.000000 -31.890897 3.774452 1.003158 -42.830597 -17.556512 -0.969173 -1.619383 -41.723474 4.118692 0.000000 0.000000 0.000000 22.497409 -4.668620 -9.700858 42.435631 -5.287728 -4.380037 14.695905 25.831242 2.826840 0.000000 0.000000 0.000000 
-0.788432 0.927112 1.811416 -4.507955 -22.237646 0.306612 5.928359 0.101180 -16.598190 5.746103 1.428421 55.754800 0.135543 -0.625164 -2.917689 0.000000 0.000000 0.000000 -0.362477 1.277342 -11.995426 0.802471 1.421926 18.612361 3.177891 3.553297 4.774069 0.000000 0.000000 0.000000 7.453735 -1.134862 15.959136 -1.537254 0.804380 0.809292 0.882391 -1.121627 -1.328112 -3.435811 2.253564 -11.745973 0.000000 0.000000 0.000000 -32.836937 2.846833 -0.783580 -41.034023 -13.516752 -1.589206 -7.777693 -38.862863 5.260820 0.000000 0.000000 0.000000 21.789511 -4.802541 -8.010485 42.819770 -1.385244 -3.337525 14.088384 27.505436 3.214499 0.000000 0.000000 0.000000 
-0.807144 0.932218 1.836277 -3.590327 -19.305487 -0.217327 6.196098 0.165024 -21.033693 1.221595 2.330928 47.957860 1.835950 2.856662 -4.135477 0.000000 0.000000 0.000000 -0.751143 0.734915 -7.582298 0.999234 0.922158 15.263976 2.203540 1.946792 4.149095 0.000000 0.000000 0.000000 6.696615 -1.125977 16.165961 -2.234035 1.101655 0.298835 0.791419 2.125708 -0.572454 -2.661882 2.064483 -11.141346 0.000000 0.000000 0.000000 -32.392390 2.611749 -2.499084 -41.186242 -10.489808 -1.988029 -10.256222 -34.892547 5.050453 0.000000 0.000000 0.000000 21.512220 -4.676085 -6.666845 42.401622 2.418370 -2.362598 12.768360 28.877043 3.417567 0.000000 0.000000 0.000000 
-0.822088 0.932010 1.863521 -2.827768 -15.604094 -0.800421 6.321859 0.040071 -23.093092 -2.296429 1.770835 32.764462 3.702629 8.368483 5.689154 0.000000 0.000000 0.000000 -1.060557 0.319584 -3.237582 1.349663 0.545384 12.611747 0.581015 -0.548043 2.697976 0.000000 0.000000 0.000000 6.298587 -1.188034 16.587887 -1.819784 0.882539 0.114279 -1.243263 5.040992 -1.254031 -1.925984 1.934215 -11.059913 0.000000 0.000000 0.000000 -32.302336 3.186748 -5.088305 -38.845061 -7.065875 -2.238591 -13.212793 -30.552483 4.792469 0.000000 0.000000 0.000000 21.306000 -4.539807 -5.226584 43.453116 6.988555 -1.189435 10.123976 29.125127 3.187605 0.000000 0.000000 0.000000 
-0.832636 0.929717 1.893211 -2.462615 -13.250527 -0.956670 6.537216 -0.058067 -23.142374 -3.035151 0.700943 14.912970 7.494395 15.188304 20.045557 0.000000 0.000000 0.000000 -0.991131 0.013653 0.413823 1.302790 0.369276 10.456733 -0.501246 -2.189570 1.470993 0.000000 0.000000 0.000000 5.866948 -1.196653 16.641430 -2.525925 1.160409 -1.461218 -1.087524 7.753399 0.139741 -1.518795 1.969665 -11.607772 0.000000 0.000000 0.000000 -32.336008 4.202620 -7.184098 -38.208938 -3.528631 -2.918281 -12.461862 -27.167228 3.868494 0.000000 0.000000 0.000000 21.286021 -3.754279 -3.820271 42.415579 11.879041 0.086052 6.735645 28.539450 2.583192 0.000000 0.000000 0.000000 
-0.838560 0.925137 1.925450 -2.328898 -9.829119 -1.457200 5.477267 -0.508541 -22.365192 -1.762228 0.191629 3.446179 7.804508 16.243904 25.321823 0.000000 0.000000 0.000000 -0.675859 -0.340238 4.530213 1.313663 0.221696 8.618470 -1.902267 -4.923203 0.512154 0.000000 0.000000 0.000000 5.339499 -1.225812 16.888126 -2.576372 1.183150 -2.052559 -1.370306 8.948316 0.181863 -1.192842 1.916754 -10.809074 0.000000 0.000000 0.000000 -31.885960 5.024436 -8.766297 -37.419111 -1.678559 -3.080315 -10.287837 -23.252811 2.728582 0.000000 0.000000 0.000000 21.346870 -2.574929 -2.381210 42.612749 16.840569 1.538058 4.159015 28.158668 2.130188 0.000000 0.000000 0.000000 
-0.839031 0.920208 1.960285 -2.599082 -8.602569 -1.586626 5.525832 -0.559468 -21.812441 -2.138188 0.259081 1.236656 7.975482 16.694319 25.560037 0.000000 0.000000 0.000000 -0.724930 -0.573231 7.501395 0.923548 0.275534 8.724604 -1.592893 -3.381867 -0.971658 0.000000 0.000000 0.000000 4.608264 -1.150013 16.749822 -3.741240 1.706954 -2.836525 -0.386436 11.344048 0.601984 -0.422782 1.582958 -10.479402 0.000000 0.000000 0.000000 -31.343581 4.932182 -9.580534 -37.637924 1.943509 -3.915545 -7.619143 -20.549371 1.846927 0.000000 0.000000 0.000000 23.660529 -2.388723 -1.629244 40.108547 19.236137 1.797695 4.688697 30.452279 2.637722 0.000000 0.000000 0.000000 
-0.833852 0.915888 1.998545 -2.578102 -5.425757 -1.771061 4.012378 -0.986864 -20.779153 -2.686341 0.312372 1.791491 7.717846 16.860657 24.925172 0.000000 0.000000 0.000000 -1.093195 -0.740281 9.500922 0.883162 0.349448 11.009120 -1.521159 -3.448405 -0.678464 0.000000 0.000000 0.000000 3.640241 -1.042162 15.822398 -3.203059 1.483533 -2.983287 -1.311283 12.452524 1.216320 0.795648 1.105259 -11.284318 0.000000 0.000000 0.000000 -28.768098 4.918754 -9.806314 -39.880860 3.047929 -4.419442 -4.701022 -19.108519 1.133789 0.000000 0.000000 0.000000 25.036402 -1.698853 -0.288827 39.642597 21.681513 2.129239 4.263146 31.051025 2.774160 0.000000 0.000000 0.000000 
